<svg xmlns="http://www.w3.org/2000/svg" width="512" height="512" style=""><rect id="backgroundrect" width="100%" height="100%" x="0" y="0" fill="none" stroke="none"/><title>Id Card</title><g class="currentLayer" style=""><title>Layer 1</title><rect x="96" y="31.310344696044922" width="320" height="448" rx="48" fill="none" stroke="#37306b" stroke-linejoin="round" stroke-width="32" id="svg_1" class="" stroke-opacity="1"/><path fill="none" stroke="#66347f" stroke-linecap="round" stroke-linejoin="round" stroke-width="32" d="M208 80h96" id="svg_2" class="" stroke-opacity="1"/><path d="M333.48 284.51A39.65 39.65 0 00304 272c-11.6 0-22.09 4.41-29.54 12.43s-11.2 19.12-10.34 31C265.83 338.91 283.72 358 304 358s38.14-19.09 39.87-42.55c.88-11.78-2.82-22.77-10.39-30.94zM371.69 448H236.31a12.05 12.05 0 01-9.31-4.17 13 13 0 01-2.76-10.92c3.25-17.56 13.38-32.31 29.3-42.66C267.68 381.06 285.6 376 304 376s36.32 5.06 50.46 14.25c15.92 10.35 26.05 25.1 29.3 42.66a13 13 0 01-2.76 10.92 12.05 12.05 0 01-9.31 4.17z" id="svg_3" class="" stroke-opacity="1" stroke="#66347f" fill-opacity="1" fill="#9e4784"/></g></svg>